<mxfile host="65bd71144e">
    <diagram id="owHmtyhuRX1xeUSnoraB" name="Page-1">
        <mxGraphModel dx="1348" dy="1652" grid="1" gridSize="10" guides="1" tooltips="1" connect="1" arrows="1" fold="1" page="1" pageScale="1" pageWidth="827" pageHeight="1169" math="0" shadow="0">
            <root>
                <mxCell id="0"/>
                <mxCell id="1" parent="0"/>
                <mxCell id="2" value="Vertical Tree Layout" style="swimlane;startSize=20;horizontal=1;childLayout=treeLayout;horizontalTree=0;sortEdges=1;resizable=0;containerType=tree;fontSize=12;" parent="1" vertex="1">
                    <mxGeometry x="230" y="-230" width="840" height="370" as="geometry"/>
                </mxCell>
                <mxCell id="3" value="Root" style="whiteSpace=wrap;html=1;" parent="2" vertex="1">
                    <mxGeometry x="142.5" y="40" width="365" height="40" as="geometry"/>
                </mxCell>
                <mxCell id="4" value="List Of Notes" style="whiteSpace=wrap;html=1;" parent="2" vertex="1">
                    <mxGeometry x="75" y="130" width="130" height="40" as="geometry"/>
                </mxCell>
                <mxCell id="5" value="" style="edgeStyle=elbowEdgeStyle;elbow=vertical;html=1;rounded=1;curved=0;sourcePerimeterSpacing=0;targetPerimeterSpacing=0;startSize=6;endSize=6;" parent="2" source="3" target="4" edge="1">
                    <mxGeometry relative="1" as="geometry"/>
                </mxCell>
                <mxCell id="42" style="edgeStyle=none;html=1;exitX=0;exitY=0.25;exitDx=0;exitDy=0;entryX=1;entryY=0.5;entryDx=0;entryDy=0;" edge="1" parent="2" source="6" target="4">
                    <mxGeometry relative="1" as="geometry"/>
                </mxCell>
                <mxCell id="6" value="Bottom Dial" style="whiteSpace=wrap;html=1;" parent="2" vertex="1">
                    <mxGeometry x="475" y="130" width="100" height="40" as="geometry"/>
                </mxCell>
                <mxCell id="7" value="" style="edgeStyle=elbowEdgeStyle;elbow=vertical;html=1;rounded=1;curved=0;sourcePerimeterSpacing=0;targetPerimeterSpacing=0;startSize=6;endSize=6;" parent="2" source="3" target="6" edge="1">
                    <mxGeometry relative="1" as="geometry"/>
                </mxCell>
                <mxCell id="10" value="" style="edgeStyle=elbowEdgeStyle;elbow=vertical;html=1;rounded=1;curved=0;sourcePerimeterSpacing=0;targetPerimeterSpacing=0;startSize=6;endSize=6;" parent="2" source="6" target="11" edge="1">
                    <mxGeometry relative="1" as="geometry">
                        <mxPoint x="-436.5" y="-90" as="sourcePoint"/>
                    </mxGeometry>
                </mxCell>
                <mxCell id="11" value="Add Notes" style="whiteSpace=wrap;html=1;" parent="2" vertex="1">
                    <mxGeometry x="300" y="220" width="100" height="40" as="geometry"/>
                </mxCell>
                <mxCell id="14" value="" style="edgeStyle=elbowEdgeStyle;elbow=vertical;html=1;rounded=1;curved=0;sourcePerimeterSpacing=0;targetPerimeterSpacing=0;startSize=6;endSize=6;" parent="2" source="6" target="15" edge="1">
                    <mxGeometry relative="1" as="geometry">
                        <mxPoint x="-366.5" as="sourcePoint"/>
                    </mxGeometry>
                </mxCell>
                <mxCell id="15" value="Todo Page" style="whiteSpace=wrap;html=1;fillColor=#FFFFFF;strokeColor=#82b366;" parent="2" vertex="1">
                    <mxGeometry x="440" y="220" width="100" height="40" as="geometry"/>
                </mxCell>
                <mxCell id="16" value="" style="edgeStyle=elbowEdgeStyle;elbow=vertical;html=1;rounded=1;curved=0;sourcePerimeterSpacing=0;targetPerimeterSpacing=0;startSize=6;endSize=6;" parent="2" source="6" target="17" edge="1">
                    <mxGeometry relative="1" as="geometry">
                        <mxPoint x="-240.5" as="sourcePoint"/>
                    </mxGeometry>
                </mxCell>
                <mxCell id="17" value="Settings page" style="whiteSpace=wrap;html=1;" parent="2" vertex="1">
                    <mxGeometry x="650" y="220" width="100" height="40" as="geometry"/>
                </mxCell>
                <mxCell id="18" value="" style="edgeStyle=elbowEdgeStyle;elbow=vertical;html=1;rounded=1;curved=0;sourcePerimeterSpacing=0;targetPerimeterSpacing=0;startSize=6;endSize=6;" parent="2" source="4" target="19" edge="1">
                    <mxGeometry relative="1" as="geometry">
                        <mxPoint x="-212.5" y="-90" as="sourcePoint"/>
                    </mxGeometry>
                </mxCell>
                <mxCell id="19" value="View / Edit /Delete Notes" style="whiteSpace=wrap;html=1;" parent="2" vertex="1">
                    <mxGeometry x="20" y="220" width="100" height="40" as="geometry"/>
                </mxCell>
                <mxCell id="34" value="" style="edgeStyle=elbowEdgeStyle;elbow=vertical;html=1;rounded=1;curved=0;sourcePerimeterSpacing=0;targetPerimeterSpacing=0;startSize=6;endSize=6;" edge="1" target="35" source="15" parent="2">
                    <mxGeometry relative="1" as="geometry">
                        <mxPoint x="112.5" as="sourcePoint"/>
                    </mxGeometry>
                </mxCell>
                <mxCell id="35" value="Add Todos" style="whiteSpace=wrap;html=1;fillColor=#FFFFFF;strokeColor=#82b366;" vertex="1" parent="2">
                    <mxGeometry x="440" y="310" width="100" height="40" as="geometry"/>
                </mxCell>
                <mxCell id="36" value="" style="edgeStyle=elbowEdgeStyle;elbow=vertical;html=1;rounded=1;curved=0;sourcePerimeterSpacing=0;targetPerimeterSpacing=0;startSize=6;endSize=6;" edge="1" target="37" source="17" parent="2">
                    <mxGeometry relative="1" as="geometry">
                        <mxPoint x="112.5" as="sourcePoint"/>
                    </mxGeometry>
                </mxCell>
                <mxCell id="37" value="DarkMode" style="whiteSpace=wrap;html=1;" vertex="1" parent="2">
                    <mxGeometry x="580" y="310" width="100" height="40" as="geometry"/>
                </mxCell>
                <mxCell id="40" value="" style="edgeStyle=elbowEdgeStyle;elbow=vertical;html=1;rounded=1;curved=0;sourcePerimeterSpacing=0;targetPerimeterSpacing=0;startSize=6;endSize=6;" edge="1" target="41" source="17" parent="2">
                    <mxGeometry relative="1" as="geometry">
                        <mxPoint x="112.5" as="sourcePoint"/>
                    </mxGeometry>
                </mxCell>
                <mxCell id="41" value="About&amp;nbsp;" style="whiteSpace=wrap;html=1;" vertex="1" parent="2">
                    <mxGeometry x="720" y="310" width="100" height="40" as="geometry"/>
                </mxCell>
                <mxCell id="13" value="Add Notes Page" style="whiteSpace=wrap;html=1;" parent="2" vertex="1">
                    <mxGeometry x="160" y="220" width="100" height="40" as="geometry"/>
                </mxCell>
                <mxCell id="12" value="" style="edgeStyle=elbowEdgeStyle;elbow=vertical;html=1;rounded=1;curved=0;sourcePerimeterSpacing=0;targetPerimeterSpacing=0;startSize=6;endSize=6;" parent="2" source="11" target="13" edge="1">
                    <mxGeometry relative="1" as="geometry">
                        <mxPoint x="83.5" y="-100" as="sourcePoint"/>
                    </mxGeometry>
                </mxCell>
                <mxCell id="33" style="edgeStyle=none;html=1;exitX=0.75;exitY=1;exitDx=0;exitDy=0;" parent="2" source="4" target="13" edge="1">
                    <mxGeometry relative="1" as="geometry"/>
                </mxCell>
                <mxCell id="20" value="Notes App" style="text;strokeColor=none;fillColor=none;html=1;fontSize=24;fontStyle=1;verticalAlign=middle;align=center;" parent="1" vertex="1">
                    <mxGeometry x="440" y="-330" width="220" height="50" as="geometry"/>
                </mxCell>
                <mxCell id="26" value="" style="edgeStyle=none;html=1;" parent="1" source="22" target="25" edge="1">
                    <mxGeometry relative="1" as="geometry"/>
                </mxCell>
                <mxCell id="22" value="&lt;ol&gt;&lt;li&gt;Read&lt;/li&gt;&lt;li&gt;Delete&lt;/li&gt;&lt;li&gt;Update&lt;/li&gt;&lt;li&gt;Create&lt;/li&gt;&lt;/ol&gt;" style="text;strokeColor=none;fillColor=none;html=1;whiteSpace=wrap;verticalAlign=middle;overflow=hidden;" parent="1" vertex="1">
                    <mxGeometry x="25" y="-100" width="130" height="130" as="geometry"/>
                </mxCell>
                <mxCell id="25" value="CRUD Operation" style="rounded=1;whiteSpace=wrap;html=1;fillColor=#d5e8d4;strokeColor=#82b366;" parent="1" vertex="1">
                    <mxGeometry x="30" y="-250" width="120" height="60" as="geometry"/>
                </mxCell>
                <mxCell id="29" style="edgeStyle=none;html=1;exitX=0.5;exitY=1;exitDx=0;exitDy=0;" parent="1" source="27" target="28" edge="1">
                    <mxGeometry relative="1" as="geometry"/>
                </mxCell>
                <mxCell id="27" value="Persistent Storage" style="shape=ext;double=1;rounded=1;whiteSpace=wrap;html=1;fillColor=#d5e8d4;strokeColor=#82b366;" parent="1" vertex="1">
                    <mxGeometry x="20" y="80" width="120" height="80" as="geometry"/>
                </mxCell>
                <mxCell id="28" value="SQLITE / Settings" style="icon;html=1;image=img/clipart/Gear_128x128.png" parent="1" vertex="1">
                    <mxGeometry x="40" y="220" width="110" height="90" as="geometry"/>
                </mxCell>
            </root>
        </mxGraphModel>
    </diagram>
</mxfile>